<svg version="1.1" xmlns="http://www.w3.org/2000/svg" xmlns:xlink="http://www.w3.org/1999/xlink">
<g id="body1" width="45" height="45" cx="22.5" cy="22.5">
  <!-- Exported by Scratch - http://scratch.mit.edu/ -->
  <path id="ID0.8148140325210989" fill="#FAA51D" stroke="#000000" stroke-width="1" d="M 240.250 147 C 249.010 147 256.947 150.558 262.695 156.305 C 268.442 162.053 272 169.990 272 178.750 C 272 187.510 268.442 195.447 262.695 201.195 C 256.947 206.942 249.010 210.500 240.250 210.500 C 231.490 210.500 223.553 206.942 217.805 201.195 C 212.058 195.447 208.500 187.510 208.500 178.750 C 208.500 169.990 212.058 162.053 217.805 156.305 C 223.553 150.558 231.490 147 240.250 147 Z " transform="matrix(0.6744186282157898, 0, 0, 0.6744186282157898, -139.75, -97.85)"/>
</g>
<g id="body2" width="57" height="45" cx="34.5" cy="22.5">
  <!-- Exported by Scratch - http://scratch.mit.edu/ -->
  <path id="ID0.8148140325210989" fill="#995900" stroke="#000000" stroke-width="1" d="M 240.250 147 C 249.010 147 256.947 150.558 262.695 156.305 C 268.442 162.053 272 169.990 272 178.750 C 272 187.510 268.442 195.447 262.695 201.195 C 256.947 206.942 249.010 210.500 240.250 210.500 C 231.490 210.500 223.553 206.942 217.805 201.195 C 212.058 195.447 208.500 187.510 208.500 178.750 C 208.500 169.990 212.058 162.053 217.805 156.305 C 223.553 150.558 231.490 147 240.250 147 Z " transform="matrix(0.6744186282157898, 0, 0, 0.6744186282157898, -127.75, -97.85)"/>
  <path id="ID0.8567658900283277" fill="#FFFFFF" stroke="#000000" stroke-width="1" stroke-linecap="round" d="M 223.450 188.800 L 223.450 176.450 L 207.450 182.700 L 223.450 188.800 Z " transform="matrix(1, 0, 0, 1, -206, -158)"/>
</g>
<g id="body3" width="61" height="59" cx="30" cy="30">
  <!-- Exported by Scratch - http://scratch.mit.edu/ -->
  <path id="ID0.8148140325210989" fill="#00FF55" stroke="#00CC44" stroke-width="2" d="M 240.250 147 C 249.010 147 256.947 150.558 262.695 156.305 C 268.442 162.053 272 169.990 272 178.750 C 272 187.510 268.442 195.447 262.695 201.195 C 256.947 206.942 249.010 210.500 240.250 210.500 C 231.490 210.500 223.553 206.942 217.805 201.195 C 212.058 195.447 208.500 187.510 208.500 178.750 C 208.500 169.990 212.058 162.053 217.805 156.305 C 223.553 150.558 231.490 147 240.250 147 Z " transform="matrix(0.6744186282157898, 0, 0, 0.6744186282157898, -130.75, -91.85)"/>
  <path id="ID0.18229661975055933" fill="none" stroke="#00CC44" stroke-width="2" stroke-linecap="round" d="M 239.750 162.350 L 239.750 153.350 " transform="matrix(1, 0, 0, 1, -209, -152)"/>
  <path id="ID0.217115119099617" fill="none" stroke="#00CC44" stroke-width="2" stroke-linecap="round" d="M 245 163.600 L 247.900 153.700 " transform="matrix(1, 0, 0, 1, -209, -152)"/>
  <path id="ID0.2957354444079101" fill="none" stroke="#00CC44" stroke-width="2" stroke-linecap="round" d="M 250.100 164.600 L 255.250 156.500 " transform="matrix(1, 0, 0, 1, -209, -152)"/>
  <path id="ID0.7829866837710142" fill="none" stroke="#00CC44" stroke-width="2" stroke-linecap="round" d="M 253.600 167.850 L 261.600 161.850 " transform="matrix(1, 0, 0, 1, -209, -152)"/>
  <path id="ID0.47540233517065644" fill="none" stroke="#00CC44" stroke-width="2" stroke-linecap="round" d="M 256 172.500 L 266 169.200 " transform="matrix(1, 0, 0, 1, -209, -152)"/>
  <path id="ID0.14702362148091197" fill="none" stroke="#00CC44" stroke-width="2" stroke-linecap="round" d="M 257.100 178.100 L 268.100 176.600 " transform="matrix(1, 0, 0, 1, -209, -152)"/>
  <path id="ID0.9237328446470201" fill="none" stroke="#00CC44" stroke-width="2" stroke-linecap="round" d="M 257.600 183.350 L 268.600 184.350 " transform="matrix(1, 0, 0, 1, -209, -152)"/>
  <path id="ID0.09066332876682281" fill="none" stroke="#00CC44" stroke-width="2" stroke-linecap="round" d="M 256.100 188.350 L 266.600 192.200 " transform="matrix(1, 0, 0, 1, -209, -152)"/>
  <path id="ID0.26790788350626826" fill="none" stroke="#00CC44" stroke-width="2" stroke-linecap="round" d="M 252.600 192.600 L 262.100 199.850 " transform="matrix(1, 0, 0, 1, -209, -152)"/>
  <path id="ID0.7352887839078903" fill="none" stroke="#00CC44" stroke-width="2" stroke-linecap="round" d="M 247.900 195.850 L 255.750 206.500 " transform="matrix(1, 0, 0, 1, -209, -152)"/>
  <path id="ID0.7625949401408434" fill="none" stroke="#00CC44" stroke-width="2" stroke-linecap="round" d="M 243.250 197.600 L 245.500 208.500 " transform="matrix(1, 0, 0, 1, -209, -152)"/>
  <path id="ID0.9854731550440192" fill="none" stroke="#00CC44" stroke-width="2" stroke-linecap="round" d="M 237.900 197.850 L 236.400 208.200 " transform="matrix(1, 0, 0, 1, -209, -152)"/>
  <path id="ID0.16843349859118462" fill="none" stroke="#00CC44" stroke-width="2" stroke-linecap="round" d="M 232.250 195.700 L 227.600 205.700 " transform="matrix(1, 0, 0, 1, -209, -152)"/>
  <path id="ID0.602446808014065" fill="none" stroke="#00CC44" stroke-width="2" stroke-linecap="round" d="M 227.400 193.100 L 220.500 201.850 " transform="matrix(1, 0, 0, 1, -209, -152)"/>
  <path id="ID0.19554366078227758" fill="none" stroke="#00CC44" stroke-width="2" stroke-linecap="round" d="M 223.100 188.100 L 214.100 193.100 " transform="matrix(1, 0, 0, 1, -209, -152)"/>
  <path id="ID0.8693011389113963" fill="none" stroke="#00CC44" stroke-width="2" stroke-linecap="round" d="M 221.750 181.700 L 210.900 182.850 " transform="matrix(1, 0, 0, 1, -209, -152)"/>
  <path id="ID0.5526417549699545" fill="none" stroke="#00CC44" stroke-width="2" stroke-linecap="round" d="M 222.600 175.600 L 212.250 172.350 " transform="matrix(1, 0, 0, 1, -209, -152)"/>
  <path id="ID0.7942471420392394" fill="none" stroke="#00CC44" stroke-width="2" stroke-linecap="round" d="M 226 170.100 L 217 162.700 " transform="matrix(1, 0, 0, 1, -209, -152)"/>
  <path id="ID0.8633516589179635" fill="none" stroke="#00CC44" stroke-width="2" stroke-linecap="round" d="M 230.900 166.500 L 225.500 156.200 " transform="matrix(1, 0, 0, 1, -209, -152)"/>
  <path id="ID0.6823653997853398" fill="none" stroke="#00CC44" stroke-width="2" stroke-linecap="round" d="M 235.400 162.850 L 232.400 153.100 " transform="matrix(1, 0, 0, 1, -209, -152)"/>
</g>
</svg>