<!--
    Underground Monster Sprite Sheet
[ ] Head1
[ ] Head2
[ ] Head3
[ ] Body1
[ ] Body2
[ ] Body3
[ ] Soldier1
[ ] Soldier2
[ ] Soldier3
[ ] X 






-->

<svg version="1.1" xmlns="http://www.w3.org/2000/svg" xmlns:xlink="http://www.w3.org/1999/xlink">
<g id="body1" width="45" height="45" cx="22.5" cy="22.5">
  <!-- Exported by Scratch - http://scratch.mit.edu/ -->
  <path id="ID0.8148140325210989" fill="#FAA51D" stroke="#000000" stroke-width="1" d="M 240.250 147 C 249.010 147 256.947 150.558 262.695 156.305 C 268.442 162.053 272 169.990 272 178.750 C 272 187.510 268.442 195.447 262.695 201.195 C 256.947 206.942 249.010 210.500 240.250 210.500 C 231.490 210.500 223.553 206.942 217.805 201.195 C 212.058 195.447 208.500 187.510 208.500 178.750 C 208.500 169.990 212.058 162.053 217.805 156.305 C 223.553 150.558 231.490 147 240.250 147 Z " transform="matrix(0.6744186282157898, 0, 0, 0.6744186282157898, -139.75, -97.85)"/>
</g>
<g id="body2" width="57" height="45" cx="34.5" cy="22.5">
  <!-- Exported by Scratch - http://scratch.mit.edu/ -->
  <path id="ID0.8148140325210989" fill="#995900" stroke="#000000" stroke-width="1" d="M 240.250 147 C 249.010 147 256.947 150.558 262.695 156.305 C 268.442 162.053 272 169.990 272 178.750 C 272 187.510 268.442 195.447 262.695 201.195 C 256.947 206.942 249.010 210.500 240.250 210.500 C 231.490 210.500 223.553 206.942 217.805 201.195 C 212.058 195.447 208.500 187.510 208.500 178.750 C 208.500 169.990 212.058 162.053 217.805 156.305 C 223.553 150.558 231.490 147 240.250 147 Z " transform="matrix(0.6744186282157898, 0, 0, 0.6744186282157898, -127.75, -97.85)"/>
  <path id="ID0.8567658900283277" fill="#FFFFFF" stroke="#000000" stroke-width="1" stroke-linecap="round" d="M 223.450 188.800 L 223.450 176.450 L 207.450 182.700 L 223.450 188.800 Z " transform="matrix(1, 0, 0, 1, -206, -158)"/>
</g>
<g id="body3" width="61" height="59" cx="30" cy="30">
  <!-- Exported by Scratch - http://scratch.mit.edu/ -->
  <path id="ID0.8148140325210989" fill="#00FF55" stroke="#00CC44" stroke-width="2" d="M 240.250 147 C 249.010 147 256.947 150.558 262.695 156.305 C 268.442 162.053 272 169.990 272 178.750 C 272 187.510 268.442 195.447 262.695 201.195 C 256.947 206.942 249.010 210.500 240.250 210.500 C 231.490 210.500 223.553 206.942 217.805 201.195 C 212.058 195.447 208.500 187.510 208.500 178.750 C 208.500 169.990 212.058 162.053 217.805 156.305 C 223.553 150.558 231.490 147 240.250 147 Z " transform="matrix(0.6744186282157898, 0, 0, 0.6744186282157898, -130.75, -91.85)"/>
  <path id="ID0.18229661975055933" fill="none" stroke="#00CC44" stroke-width="2" stroke-linecap="round" d="M 239.750 162.350 L 239.750 153.350 " transform="matrix(1, 0, 0, 1, -209, -152)"/>
  <path id="ID0.217115119099617" fill="none" stroke="#00CC44" stroke-width="2" stroke-linecap="round" d="M 245 163.600 L 247.900 153.700 " transform="matrix(1, 0, 0, 1, -209, -152)"/>
  <path id="ID0.2957354444079101" fill="none" stroke="#00CC44" stroke-width="2" stroke-linecap="round" d="M 250.100 164.600 L 255.250 156.500 " transform="matrix(1, 0, 0, 1, -209, -152)"/>
  <path id="ID0.7829866837710142" fill="none" stroke="#00CC44" stroke-width="2" stroke-linecap="round" d="M 253.600 167.850 L 261.600 161.850 " transform="matrix(1, 0, 0, 1, -209, -152)"/>
  <path id="ID0.47540233517065644" fill="none" stroke="#00CC44" stroke-width="2" stroke-linecap="round" d="M 256 172.500 L 266 169.200 " transform="matrix(1, 0, 0, 1, -209, -152)"/>
  <path id="ID0.14702362148091197" fill="none" stroke="#00CC44" stroke-width="2" stroke-linecap="round" d="M 257.100 178.100 L 268.100 176.600 " transform="matrix(1, 0, 0, 1, -209, -152)"/>
  <path id="ID0.9237328446470201" fill="none" stroke="#00CC44" stroke-width="2" stroke-linecap="round" d="M 257.600 183.350 L 268.600 184.350 " transform="matrix(1, 0, 0, 1, -209, -152)"/>
  <path id="ID0.09066332876682281" fill="none" stroke="#00CC44" stroke-width="2" stroke-linecap="round" d="M 256.100 188.350 L 266.600 192.200 " transform="matrix(1, 0, 0, 1, -209, -152)"/>
  <path id="ID0.26790788350626826" fill="none" stroke="#00CC44" stroke-width="2" stroke-linecap="round" d="M 252.600 192.600 L 262.100 199.850 " transform="matrix(1, 0, 0, 1, -209, -152)"/>
  <path id="ID0.7352887839078903" fill="none" stroke="#00CC44" stroke-width="2" stroke-linecap="round" d="M 247.900 195.850 L 255.750 206.500 " transform="matrix(1, 0, 0, 1, -209, -152)"/>
  <path id="ID0.7625949401408434" fill="none" stroke="#00CC44" stroke-width="2" stroke-linecap="round" d="M 243.250 197.600 L 245.500 208.500 " transform="matrix(1, 0, 0, 1, -209, -152)"/>
  <path id="ID0.9854731550440192" fill="none" stroke="#00CC44" stroke-width="2" stroke-linecap="round" d="M 237.900 197.850 L 236.400 208.200 " transform="matrix(1, 0, 0, 1, -209, -152)"/>
  <path id="ID0.16843349859118462" fill="none" stroke="#00CC44" stroke-width="2" stroke-linecap="round" d="M 232.250 195.700 L 227.600 205.700 " transform="matrix(1, 0, 0, 1, -209, -152)"/>
  <path id="ID0.602446808014065" fill="none" stroke="#00CC44" stroke-width="2" stroke-linecap="round" d="M 227.400 193.100 L 220.500 201.850 " transform="matrix(1, 0, 0, 1, -209, -152)"/>
  <path id="ID0.19554366078227758" fill="none" stroke="#00CC44" stroke-width="2" stroke-linecap="round" d="M 223.100 188.100 L 214.100 193.100 " transform="matrix(1, 0, 0, 1, -209, -152)"/>
  <path id="ID0.8693011389113963" fill="none" stroke="#00CC44" stroke-width="2" stroke-linecap="round" d="M 221.750 181.700 L 210.900 182.850 " transform="matrix(1, 0, 0, 1, -209, -152)"/>
  <path id="ID0.5526417549699545" fill="none" stroke="#00CC44" stroke-width="2" stroke-linecap="round" d="M 222.600 175.600 L 212.250 172.350 " transform="matrix(1, 0, 0, 1, -209, -152)"/>
  <path id="ID0.7942471420392394" fill="none" stroke="#00CC44" stroke-width="2" stroke-linecap="round" d="M 226 170.100 L 217 162.700 " transform="matrix(1, 0, 0, 1, -209, -152)"/>
  <path id="ID0.8633516589179635" fill="none" stroke="#00CC44" stroke-width="2" stroke-linecap="round" d="M 230.900 166.500 L 225.500 156.200 " transform="matrix(1, 0, 0, 1, -209, -152)"/>
  <path id="ID0.6823653997853398" fill="none" stroke="#00CC44" stroke-width="2" stroke-linecap="round" d="M 235.400 162.850 L 232.400 153.100 " transform="matrix(1, 0, 0, 1, -209, -152)"/>
</g>
<g id="soldier1" width="81" height="75" cx="40" cy="75">
  <!-- Exported by Scratch - http://scratch.mit.edu/ -->
  <g id="ID0.21371194580569863" transform="matrix(1, 0, 0, 1, 1, 0.25)">
    <path id="ID0.9328172220848501" fill="#FFD499" stroke="none" d="M 281.375 144.500 C 282.651 144.500 283.807 144.976 284.645 145.746 C 285.482 146.515 286 147.577 286 148.750 C 286 149.923 285.482 150.985 284.645 151.754 C 283.807 152.524 282.651 153 281.375 153 C 280.099 153 278.943 152.524 278.105 151.754 C 277.268 150.985 276.750 149.923 276.750 148.750 C 276.750 147.577 277.268 146.515 278.105 145.746 C 278.943 144.976 280.099 144.500 281.375 144.500 Z " transform="matrix(1, 0, 0, 1, -232.5, -119.25)"/>
    <path id="ID0.9476919886656106" fill="#CCCC00" stroke="none" stroke-linecap="round" d="M 237.250 152.500 L 246.250 152.500 L 251.500 166.250 L 246.750 180.750 L 238 178.500 L 241.750 166.500 L 237.250 152.500 Z " transform="matrix(-0.4039035141468048, 0.9148015975952148, -0.9148015975952148, -0.4039035141468048, 283.9, -130.25)"/>
  </g>
  <g id="ID0.8979950002394617" transform="matrix(1, 0, 0, 1, 1, 0.25)">
    <path id="ID0.8471454749815166" fill="#B2B2B2" stroke="none" d="M 257.250 186 C 259.181 186 260.931 186.476 262.198 187.246 C 263.466 188.015 264.250 189.077 264.250 190.250 C 264.250 191.423 263.466 192.485 262.198 193.254 C 260.931 194.024 259.181 194.500 257.250 194.500 C 255.319 194.500 253.569 194.024 252.302 193.254 C 251.034 192.485 250.250 191.423 250.250 190.250 C 250.250 189.077 251.034 188.015 252.302 187.246 C 253.569 186.476 255.319 186 257.250 186 Z " transform="matrix(0.9919694066047668, 0.1264781504869461, -0.1264781504869461, 0.9919694066047668, -198.15, -152.7)"/>
    <path id="ID0.9476919886656106" fill="#CCCC00" stroke="none" stroke-linecap="round" d="M 237.250 152.500 L 246.250 152.500 L 251.500 166.250 L 246.750 180.750 L 238 178.500 L 241.750 166.500 L 237.250 152.500 Z " transform="matrix(0.9514064788818359, -0.3079378306865692, 0.3079378306865692, 0.9514064788818359, -255.05, -28.5)"/>
  </g>
  <g id="ID0.8979950002394617" transform="matrix(1, 0, 0, 1, 1, 0.25)">
    <path id="ID0.8471454749815166" fill="#B2B2B2" stroke="none" d="M 257.250 186 C 259.181 186 260.931 186.476 262.198 187.246 C 263.466 188.015 264.250 189.077 264.250 190.250 C 264.250 191.423 263.466 192.485 262.198 193.254 C 260.931 194.024 259.181 194.500 257.250 194.500 C 255.319 194.500 253.569 194.024 252.302 193.254 C 251.034 192.485 250.250 191.423 250.250 190.250 C 250.250 189.077 251.034 188.015 252.302 187.246 C 253.569 186.476 255.319 186 257.250 186 Z " transform="matrix(0.5840540528297424, 0.811714768409729, -0.811714768409729, 0.5840540528297424, 11.65, -253.85)"/>
    <path id="ID0.9476919886656106" fill="#CCCC00" stroke="none" stroke-linecap="round" d="M 237.250 152.500 L 246.250 152.500 L 251.500 166.250 L 246.750 180.750 L 238 178.500 L 241.750 166.500 L 237.250 152.500 Z " transform="matrix(0.8740887641906738, 0.48576620221138, -0.48576620221138, 0.8740887641906738, -117.95, -210.8)"/>
  </g>
  <g id="ID0.7795519214123487" transform="matrix(1, 0, 0, 1, 1, 0.25)">
    <path id="ID0.08080199966207147" fill="#FFD499" stroke="none" d="M 254 117.750 C 256.069 117.750 257.944 118.590 259.302 119.948 C 260.660 121.306 261.500 123.181 261.500 125.250 C 261.500 127.319 260.660 129.194 259.302 130.552 C 257.944 131.910 256.069 132.750 254 132.750 C 251.931 132.750 250.056 131.910 248.698 130.552 C 247.340 129.194 246.500 127.319 246.500 125.250 C 246.500 123.181 247.340 121.306 248.698 119.948 C 250.056 118.590 251.931 117.750 254 117.750 Z " transform="matrix(1, 0, 0, 1, -228, -114.25)"/>
    <path id="ID0.2953193848952651" fill="#009933" stroke="none" stroke-linecap="round" d="M 270.125 161.750 C 272.436 161.750 274.529 162.688 276.045 164.205 C 277.562 165.721 278.482 167.992 278.500 170.125 C 278.502 171.177 277.355 171.874 276.250 172 C 271.873 172.537 267.314 172.615 263 172 C 261.921 171.847 261.632 170.952 261.750 170.125 C 262.056 168.013 262.688 165.721 264.205 164.205 C 265.721 162.688 267.814 161.750 270.125 161.750 Z " transform="matrix(1, 0, 0, 1, -243.75, -161.75)"/>
    <path id="ID0.6879237368702888" fill="none" stroke="#000000" stroke-width="2" stroke-linecap="round" d="M 259.500 121.750 L 259.800 122.050 " transform="matrix(1, 0, 0, 1, -229, -111)"/>
    <path id="ID0.6701201861724257" fill="none" stroke="#000000" stroke-linecap="round" d="M 256.750 125.750 C 256.750 125.750 258.238 125.340 259 125.250 C 259.661 125.172 260.334 125.250 261 125.250 C 261.166 125.250 261.250 125.250 261.250 125.250 " transform="matrix(1.1333333253860474, 0, 0, 1.1333333253860474, -263.3, -127.65)"/>
  </g>
  <path id="ID0.5357704097405076" fill="#009933" stroke="none" d="M 230.500 128.500 L 247 128.500 L 247 159 L 230.500 159 L 230.500 128.500 Z " transform="matrix(0.9980024695396423, 0.06317514181137085, -0.06317514181137085, 0.9980024695396423, -207.45, -126.75)"/>
  <path id="ID0.9896392896771431" fill="#7F7F7F" stroke="#7F7F7F" stroke-width="2" stroke-linecap="round" d="M 261.500 139.250 L 261.500 131.250 L 308.750 131.500 L 308.500 134 L 281.250 133.500 L 282.750 140.250 L 279 140.250 L 277.250 134.500 L 272.750 134.500 L 272 141.500 L 268.750 141 L 269.250 134.500 L 262.750 140 Z " transform="matrix(1, 0, 0, 1, -228, -110.75)"/>
  <g id="ID0.21371194580569863" transform="matrix(1, 0, 0, 1, 1, 0.25)">
    <path id="ID0.9328172220848501" fill="#FFD499" stroke="none" d="M 281.375 144.500 C 282.651 144.500 283.807 144.976 284.645 145.746 C 285.482 146.515 286 147.577 286 148.750 C 286 149.923 285.482 150.985 284.645 151.754 C 283.807 152.524 282.651 153 281.375 153 C 280.099 153 278.943 152.524 278.105 151.754 C 277.268 150.985 276.750 149.923 276.750 148.750 C 276.750 147.577 277.268 146.515 278.105 145.746 C 278.943 144.976 280.099 144.500 281.375 144.500 Z " transform="matrix(1, 0, 0, 1, -240.25, -118)"/>
    <path id="ID0.9476919886656106" fill="#CCCC00" stroke="none" stroke-linecap="round" d="M 237.250 152.500 L 246.250 152.500 L 251.500 166.250 L 246.750 180.750 L 238 178.500 L 241.750 166.500 L 237.250 152.500 Z " transform="matrix(-0.4039035141468048, 0.9148015975952148, -0.9148015975952148, -0.4039035141468048, 276.15, -129)"/>
  </g>
</g>
<g id="soldier2" width="100" height="119" cx="50" cy="119">
  <!-- Exported by Scratch - http://scratch.mit.edu/ -->
  <g id="ID0.21371194580569863">
    <path id="ID0.9328172220848501" fill="#FFD499" stroke="none" d="M 281.375 144.500 C 282.651 144.500 283.807 144.976 284.645 145.746 C 285.482 146.515 286 147.577 286 148.750 C 286 149.923 285.482 150.985 284.645 151.754 C 283.807 152.524 282.651 153 281.375 153 C 280.099 153 278.943 152.524 278.105 151.754 C 277.268 150.985 276.750 149.923 276.750 148.750 C 276.750 147.577 277.268 146.515 278.105 145.746 C 278.943 144.976 280.099 144.500 281.375 144.500 Z " transform="matrix(1, 0, 0, 1, -217.5, -119.25)"/>
    <path id="ID0.9476919886656106" fill="#CCCC00" stroke="none" stroke-linecap="round" d="M 237.250 152.500 L 246.250 152.500 L 251.500 166.250 L 246.750 180.750 L 238 178.500 L 241.750 166.500 L 237.250 152.500 Z " transform="matrix(-0.4039035141468048, 0.9148015975952148, -0.9148015975952148, -0.4039035141468048, 298.9, -130.25)"/>
  </g>
  <g id="ID0.8979950002394617">
    <path id="ID0.8471454749815166" fill="#B2B2B2" stroke="none" d="M 257.250 186 C 259.181 186 260.931 186.476 262.198 187.246 C 263.466 188.015 264.250 189.077 264.250 190.250 C 264.250 191.423 263.466 192.485 262.198 193.254 C 260.931 194.024 259.181 194.500 257.250 194.500 C 255.319 194.500 253.569 194.024 252.302 193.254 C 251.034 192.485 250.250 191.423 250.250 190.250 C 250.250 189.077 251.034 188.015 252.302 187.246 C 253.569 186.476 255.319 186 257.250 186 Z " transform="matrix(0.9048187136650085, 0.4257970452308655, -0.4257970452308655, 0.9048187136650085, -121.35, -211.65)"/>
    <path id="ID0.9476919886656106" fill="#CCCC00" stroke="none" stroke-linecap="round" d="M 237.250 152.500 L 246.250 152.500 L 251.500 166.250 L 246.750 180.750 L 238 178.500 L 241.750 166.500 L 237.250 152.500 Z " transform="matrix(1, 0, 0, 1, -213.75, -111)"/>
  </g>
  <g id="ID0.8979950002394617">
    <path id="ID0.8471454749815166" fill="#B2B2B2" stroke="none" d="M 257.250 186 C 259.181 186 260.931 186.476 262.198 187.246 C 263.466 188.015 264.250 189.077 264.250 190.250 C 264.250 191.423 263.466 192.485 262.198 193.254 C 260.931 194.024 259.181 194.500 257.250 194.500 C 255.319 194.500 253.569 194.024 252.302 193.254 C 251.034 192.485 250.250 191.423 250.250 190.250 C 250.250 189.077 251.034 188.015 252.302 187.246 C 253.569 186.476 255.319 186 257.250 186 Z " transform="matrix(0.3057151436805725, 0.9521230459213257, -0.9521230459213257, 0.3057151436805725, 109.45, -243.25)"/>
    <path id="ID0.9476919886656106" fill="#CCCC00" stroke="none" stroke-linecap="round" d="M 237.250 152.500 L 246.250 152.500 L 251.500 166.250 L 246.750 180.750 L 238 178.500 L 241.750 166.500 L 237.250 152.500 Z " transform="matrix(0.6820279359817505, 0.7313261032104492, -0.7313261032104492, 0.6820279359817505, -27.15, -242.2)"/>
  </g>
  <g id="ID0.7795519214123487" transform="matrix(1, 0, 0, 1, -214, -111)">
    <path id="ID0.08080199966207147" fill="#FFD499" stroke="none" d="M 254 117.750 C 256.069 117.750 257.944 118.590 259.302 119.948 C 260.660 121.306 261.500 123.181 261.500 125.250 C 261.500 127.319 260.660 129.194 259.302 130.552 C 257.944 131.910 256.069 132.750 254 132.750 C 251.931 132.750 250.056 131.910 248.698 130.552 C 247.340 129.194 246.500 127.319 246.500 125.250 C 246.500 123.181 247.340 121.306 248.698 119.948 C 250.056 118.590 251.931 117.750 254 117.750 Z " transform="matrix(1, 0, 0, 1, 1, -3.25)"/>
    <path id="ID0.2953193848952651" fill="#009933" stroke="none" stroke-linecap="round" d="M 270.125 161.750 C 272.436 161.750 274.529 162.688 276.045 164.205 C 277.562 165.721 278.482 167.992 278.500 170.125 C 278.502 171.177 277.355 171.874 276.250 172 C 271.873 172.537 267.314 172.615 263 172 C 261.921 171.847 261.632 170.952 261.750 170.125 C 262.056 168.013 262.688 165.721 264.205 164.205 C 265.721 162.688 267.814 161.750 270.125 161.750 Z " transform="matrix(1, 0, 0, 1, -14.75, -50.75)"/>
    <path id="ID0.6879237368702888" fill="none" stroke="#000000" stroke-width="2" stroke-linecap="round" d="M 259.500 121.750 L 259.800 122.050 "/>
    <path id="ID0.6701201861724257" fill="none" stroke="#000000" stroke-linecap="round" d="M 256.750 125.750 C 256.750 125.750 258.238 125.340 259 125.250 C 259.661 125.172 260.334 125.250 261 125.250 C 261.166 125.250 261.250 125.250 261.250 125.250 " transform="matrix(1.1333333253860474, 0, 0, 1.1333333253860474, -34.3, -16.65)"/>
  </g>
  <path id="ID0.5357704097405076" fill="#009933" stroke="none" d="M 230.500 128.500 L 247 128.500 L 247 159 L 230.500 159 L 230.500 128.500 Z " transform="matrix(0.9300519824028015, 0.3674279451370239, -0.3674279451370239, 0.9300519824028015, -138, -191.75)"/>
  <path id="ID0.9896392896771431" fill="#7F7F7F" stroke="#7F7F7F" stroke-width="2" stroke-linecap="round" d="M 261.500 139.250 L 261.500 131.250 L 308.750 131.500 L 308.500 134 L 281.250 133.500 L 282.750 140.250 L 279 140.250 L 277.250 134.500 L 272.750 134.500 L 272 141.500 L 268.750 141 L 269.250 134.500 L 262.750 140 Z " transform="matrix(1, 0, 0, 1, -214, -111)"/>
  <g id="ID0.21371194580569863">
    <path id="ID0.9328172220848501" fill="#FFD499" stroke="none" d="M 281.375 144.500 C 282.651 144.500 283.807 144.976 284.645 145.746 C 285.482 146.515 286 147.577 286 148.750 C 286 149.923 285.482 150.985 284.645 151.754 C 283.807 152.524 282.651 153 281.375 153 C 280.099 153 278.943 152.524 278.105 151.754 C 277.268 150.985 276.750 149.923 276.750 148.750 C 276.750 147.577 277.268 146.515 278.105 145.746 C 278.943 144.976 280.099 144.500 281.375 144.500 Z " transform="matrix(1, 0, 0, 1, -225.25, -118)"/>
    <path id="ID0.9476919886656106" fill="#CCCC00" stroke="none" stroke-linecap="round" d="M 237.250 152.500 L 246.250 152.500 L 251.500 166.250 L 246.750 180.750 L 238 178.500 L 241.750 166.500 L 237.250 152.500 Z " transform="matrix(-0.4039035141468048, 0.9148015975952148, -0.9148015975952148, -0.4039035141468048, 291.15, -129)"/>
  </g>
</g>
<g id="soldier3" width="87" height="77" cx="44" cy="77">
  <!-- Exported by Scratch - http://scratch.mit.edu/ -->
  <g id="ID0.21371194580569863" transform="matrix(1, 0, 0, 1, -9, 0)">
    <path id="ID0.9328172220848501" fill="#FFD499" stroke="none" d="M 281.375 144.500 C 282.651 144.500 283.807 144.976 284.645 145.746 C 285.482 146.515 286 147.577 286 148.750 C 286 149.923 285.482 150.985 284.645 151.754 C 283.807 152.524 282.651 153 281.375 153 C 280.099 153 278.943 152.524 278.105 151.754 C 277.268 150.985 276.750 149.923 276.750 148.750 C 276.750 147.577 277.268 146.515 278.105 145.746 C 278.943 144.976 280.099 144.500 281.375 144.500 Z " transform="matrix(1, 0, 0, 1, -217.5, -119.25)"/>
    <path id="ID0.9476919886656106" fill="#CCCC00" stroke="none" stroke-linecap="round" d="M 237.250 152.500 L 246.250 152.500 L 251.500 166.250 L 246.750 180.750 L 238 178.500 L 241.750 166.500 L 237.250 152.500 Z " transform="matrix(-0.4039035141468048, 0.9148015975952148, -0.9148015975952148, -0.4039035141468048, 298.9, -130.25)"/>
  </g>
  <g id="ID0.8979950002394617" transform="matrix(0.9424612522125244, 0.33431532979011536, -0.33431532979011536, 0.9424612522125244, 2.9, -9.25)">
    <path id="ID0.8471454749815166" fill="#B2B2B2" stroke="none" d="M 257.250 186 C 259.181 186 260.931 186.476 262.198 187.246 C 263.466 188.015 264.250 189.077 264.250 190.250 C 264.250 191.423 263.466 192.485 262.198 193.254 C 260.931 194.024 259.181 194.500 257.250 194.500 C 255.319 194.500 253.569 194.024 252.302 193.254 C 251.034 192.485 250.250 191.423 250.250 190.250 C 250.250 189.077 251.034 188.015 252.302 187.246 C 253.569 186.476 255.319 186 257.250 186 Z " transform="matrix(0.9048187136650085, 0.4257970452308655, -0.4257970452308655, 0.9048187136650085, -121.35, -211.65)"/>
    <path id="ID0.9476919886656106" fill="#CCCC00" stroke="none" stroke-linecap="round" d="M 237.250 152.500 L 246.250 152.500 L 251.500 166.250 L 246.750 180.750 L 238 178.500 L 241.750 166.500 L 237.250 152.500 Z " transform="matrix(1, 0, 0, 1, -213.75, -111)"/>
  </g>
  <g id="ID0.8979950002394617" transform="matrix(0.9226224422454834, -0.3857043981552124, 0.3857043981552124, 0.9226224422454834, -21.3, 14.25)">
    <path id="ID0.8471454749815166" fill="#B2B2B2" stroke="none" d="M 257.250 186 C 259.181 186 260.931 186.476 262.198 187.246 C 263.466 188.015 264.250 189.077 264.250 190.250 C 264.250 191.423 263.466 192.485 262.198 193.254 C 260.931 194.024 259.181 194.500 257.250 194.500 C 255.319 194.500 253.569 194.024 252.302 193.254 C 251.034 192.485 250.250 191.423 250.250 190.250 C 250.250 189.077 251.034 188.015 252.302 187.246 C 253.569 186.476 255.319 186 257.250 186 Z " transform="matrix(0.3057151436805725, 0.9521230459213257, -0.9521230459213257, 0.3057151436805725, 109.45, -243.25)"/>
    <path id="ID0.9476919886656106" fill="#CCCC00" stroke="none" stroke-linecap="round" d="M 237.250 152.500 L 246.250 152.500 L 251.500 166.250 L 246.750 180.750 L 238 178.500 L 241.750 166.500 L 237.250 152.500 Z " transform="matrix(0.6820279359817505, 0.7313261032104492, -0.7313261032104492, 0.6820279359817505, -27.15, -242.2)"/>
  </g>
  <g id="ID0.7795519214123487" transform="matrix(1, 0, 0, 1, -9, 0)">
    <path id="ID0.08080199966207147" fill="#FFD499" stroke="none" d="M 254 117.750 C 256.069 117.750 257.944 118.590 259.302 119.948 C 260.660 121.306 261.500 123.181 261.500 125.250 C 261.500 127.319 260.660 129.194 259.302 130.552 C 257.944 131.910 256.069 132.750 254 132.750 C 251.931 132.750 250.056 131.910 248.698 130.552 C 247.340 129.194 246.500 127.319 246.500 125.250 C 246.500 123.181 247.340 121.306 248.698 119.948 C 250.056 118.590 251.931 117.750 254 117.750 Z " transform="matrix(1, 0, 0, 1, -213, -114.25)"/>
    <path id="ID0.2953193848952651" fill="#009933" stroke="none" stroke-linecap="round" d="M 270.125 161.750 C 272.436 161.750 274.529 162.688 276.045 164.205 C 277.562 165.721 278.482 167.992 278.500 170.125 C 278.502 171.177 277.355 171.874 276.250 172 C 271.873 172.537 267.314 172.615 263 172 C 261.921 171.847 261.632 170.952 261.750 170.125 C 262.056 168.013 262.688 165.721 264.205 164.205 C 265.721 162.688 267.814 161.750 270.125 161.750 Z " transform="matrix(1, 0, 0, 1, -228.75, -161.75)"/>
    <path id="ID0.6879237368702888" fill="none" stroke="#000000" stroke-width="2" stroke-linecap="round" d="M 259.500 121.750 L 259.800 122.050 " transform="matrix(1, 0, 0, 1, -214, -111)"/>
    <path id="ID0.6701201861724257" fill="none" stroke="#000000" stroke-linecap="round" d="M 256.750 125.750 C 256.750 125.750 258.238 125.340 259 125.250 C 259.661 125.172 260.334 125.250 261 125.250 C 261.166 125.250 261.250 125.250 261.250 125.250 " transform="matrix(1.1333333253860474, 0, 0, 1.1333333253860474, -248.3, -127.65)"/>
  </g>
  <path id="ID0.5357704097405076" fill="#009933" stroke="none" d="M 230.500 128.500 L 247 128.500 L 247 159 L 230.500 159 L 230.500 128.500 Z " transform="matrix(0.9300519824028015, 0.3674279451370239, -0.3674279451370239, 0.9300519824028015, -147, -191.75)"/>
  <path id="ID0.9896392896771431" fill="#7F7F7F" stroke="#7F7F7F" stroke-width="2" stroke-linecap="round" d="M 261.500 139.250 L 261.500 131.250 L 308.750 131.500 L 308.500 134 L 281.250 133.500 L 282.750 140.250 L 279 140.250 L 277.250 134.500 L 272.750 134.500 L 272 141.500 L 268.750 141 L 269.250 134.500 L 262.750 140 Z " transform="matrix(1, 0, 0, 1, -223, -111)"/>
  <g id="ID0.21371194580569863" transform="matrix(1, 0, 0, 1, -9, 0)">
    <path id="ID0.9328172220848501" fill="#FFD499" stroke="none" d="M 281.375 144.500 C 282.651 144.500 283.807 144.976 284.645 145.746 C 285.482 146.515 286 147.577 286 148.750 C 286 149.923 285.482 150.985 284.645 151.754 C 283.807 152.524 282.651 153 281.375 153 C 280.099 153 278.943 152.524 278.105 151.754 C 277.268 150.985 276.750 149.923 276.750 148.750 C 276.750 147.577 277.268 146.515 278.105 145.746 C 278.943 144.976 280.099 144.500 281.375 144.500 Z " transform="matrix(1, 0, 0, 1, -225.25, -118)"/>
    <path id="ID0.9476919886656106" fill="#CCCC00" stroke="none" stroke-linecap="round" d="M 237.250 152.500 L 246.250 152.500 L 251.500 166.250 L 246.750 180.750 L 238 178.500 L 241.750 166.500 L 237.250 152.500 Z " transform="matrix(-0.4039035141468048, 0.9148015975952148, -0.9148015975952148, -0.4039035141468048, 291.15, -129)"/>
  </g>
</g>
</svg>